<?xml version="1.0" encoding="UTF-8"?><svg id="Camada_2" xmlns="http://www.w3.org/2000/svg" viewBox="0 0 512.71 66.11"><defs><style>.cls-1{fill:#f2f1e8;}</style></defs><g id="Layer_1"><g><g><path class="cls-1" d="m69.34,44.36V1.49h14.47v41.61c0,4.79,2.26,8.86,9.95,8.86s9.95-4.07,9.95-8.86V1.49h14.47v42.87c0,13.57-10.49,21.71-24.42,21.71s-24.42-8.14-24.42-21.71Z"/><path class="cls-1" d="m171.09,15.42h-16.28v49.38h-14.47V15.42h-16.28V1.49h47.03v13.93Z"/><path class="cls-1" d="m172.45,50.42l12.48-7.24c2.26,5.25,6.15,8.77,13.3,8.77s8.59-2.71,8.59-5.16c0-3.89-3.62-5.43-13.11-8.05-9.41-2.62-18.63-7.15-18.63-19.27S185.38.22,196.33.22s18.54,4.97,23.15,14.29l-12.21,7.15c-2.17-4.52-5.16-7.33-10.94-7.33-4.52,0-6.78,2.26-6.78,4.79,0,2.89,1.54,4.88,11.4,7.87,9.59,2.89,20.35,6.24,20.35,19.63,0,12.21-9.77,19.45-23.52,19.45s-21.8-6.33-25.32-15.65Z"/><path class="cls-1" d="m242.54,1.49v63.31h-14.47V1.49h14.47Z"/><path class="cls-1" d="m309.47,33.15c0,17.91-13.3,31.66-30.75,31.66h-25.32V1.49h25.32c17.46,0,30.75,13.75,30.75,31.66Zm-13.93,0c0-10.85-6.87-17.73-16.82-17.73h-10.85v35.45h10.85c9.95,0,16.82-6.87,16.82-17.73Z"/><path class="cls-1" d="m357.41,50.87v13.93h-39.8V1.49h39.34v13.93h-24.87v10.49h22.61v13.75h-22.61v11.21h25.32Z"/><path class="cls-1" d="m364.2,57.48c0-4.7,3.89-8.59,8.59-8.59s8.59,3.89,8.59,8.59-3.89,8.59-8.59,8.59-8.59-3.89-8.59-8.59Z"/><path class="cls-1" d="m383.64,33.15c0-18.63,13.84-32.92,32.92-32.92,11.49,0,21.62,5.7,27.13,14.65l-12.48,7.24c-2.8-4.88-8.23-7.78-14.65-7.78-11.22,0-18.45,7.51-18.45,18.81s7.24,18.81,18.45,18.81c6.42,0,11.94-2.89,14.65-7.78l12.48,7.24c-5.43,8.95-15.56,14.65-27.13,14.65-19.08,0-32.92-14.29-32.92-32.92Z"/><path class="cls-1" d="m446.87,33.15c0-18.63,14.74-32.92,32.92-32.92s32.92,14.29,32.92,32.92-14.74,32.92-32.92,32.92-32.92-14.29-32.92-32.92Zm51.37,0c0-11.31-8.14-18.81-18.45-18.81s-18.45,7.51-18.45,18.81,8.14,18.81,18.45,18.81,18.45-7.51,18.45-18.81Z"/></g><path class="cls-1" d="m63.09,27.55c0,21.42-15.67,38.56-36.22,38.56C10.71,66.11,0,55.69,0,38.65,0,18.79,14.99,0,36.32,0c16.55,0,26.77,10.9,26.77,27.55Zm-48.68,14.02c0,12.17,3.89,20.25,13.14,20.25,13.44,0,21.13-19.67,21.13-37,0-13.05-3.5-20.54-12.95-20.54-12.56,0-21.32,18.6-21.32,37.29Z"/></g></g></svg>