<?xml version="1.0" encoding="utf-8"?>
<!-- Generator: Adobe Illustrator 19.0.1, SVG Export Plug-In . SVG Version: 6.00 Build 0)  -->
<svg version="1.1" id="Bags" xmlns="http://www.w3.org/2000/svg" xmlns:xlink="http://www.w3.org/1999/xlink" x="0px" y="0px"
	 viewBox="0 0 128 128" style="enable-background:new 0 0 128 128;" xml:space="preserve">
<style type="text/css">
	.st0{display:none;fill:#F6F5EC;}
	.st1{fill:#F6F5EC;}
</style>
<g id="row3">
	<path id="icon:5_2_" class="st0" d="M122.4,22.6H97.1v-9.1c0-4.6-3.8-8.4-8.5-8.4H39.4c-4.7,0-8.5,3.7-8.5,8.4v9.1H5.6
		c-3.1,0-5.6,2.5-5.6,5.6v82.4c0,3.1,2.5,5.6,5.6,5.6h5.1v1.2c0,3.1,2.5,5.6,5.6,5.6h11.7c3.1,0,5.6-2.5,5.6-5.6v-1.2h60.5v1.2
		c0,3.1,2.5,5.6,5.6,5.6h11.7c3.1,0,5.6-2.5,5.6-5.6v-1.2h5.1c3.1,0,5.6-2.5,5.6-5.6V28.2C128,25.1,125.5,22.6,122.4,22.6z
		 M23.1,103.8h-3.8V34.9h3.8V103.8z M44.5,103.8h-3.8V34.9h3.8V103.8z M65.9,103.8h-3.8V34.9h3.8V103.8z M87.3,103.8h-3.8V34.9h3.8
		V103.8z M91.4,22.6H36.6v-9.1c0-1.5,1.3-2.8,2.8-2.8h6.9c0.1,2,1.7,3.6,3.8,3.6h27.8c2,0,3.7-1.6,3.8-3.6h6.9
		c1.6,0,2.8,1.2,2.8,2.8V22.6z M108.7,103.8h-3.8V34.9h3.8V103.8z"/>
	<path id="icon:4_1_" class="st0" d="M64.4,1.3C64.5,1.3,64.5,1.3,64.4,1.3c0.1,0-0.3,0-1,0h-0.3c0,0,0,0,0,0
		c-7.8,0.2-47.5,5-59.3,69.3c-4.1,22.3-11.7,56,20,56h78.6c28.8,0,27.3-30,23.4-53C120.8,43.1,105.5,2.8,64.4,1.3z M82.5,79.9H48.7
		c-12.9,0-26.8-2.5-26.8-20.8c0-20.4,21.3-48.8,42-48.8c28.8,0,42.2,31,42,46.3C105.7,74.5,95.4,79.9,82.5,79.9z"/>
	<path id="icon:3_2_" class="st0" d="M100.4,45.8h-5.9C91.9,21.5,82.2,3.9,70.3,3.9c-1.4,0-2.7,0.2-4,0.7c-3-2.7-6.2-4.1-9.6-4.1
		c-12.4,0-22.5,19.2-24.6,45.3h-4.5L3.5,59.5l20.2,64.4c0.7,2.1,2.7,3.6,4.9,3.6h70.8c2.3,0,4.3-1.5,4.9-3.6l20.2-64.4L100.4,45.8z
		 M56.6,4.9c1.8,0,3.7,0.7,5.4,2c-8,6-14,20.5-16,38.9h-9.6C38.5,21,47.8,4.9,56.6,4.9z M52.8,69H42.3V52.1h3.3
		c-0.1,2.3-0.2,4.8-0.2,7.2h4.4c0-2.5,0.1-4.9,0.2-7.2h2.8V69z M50.5,45.8c2.1-18.4,8.1-31.4,14.8-35.8c5.5,6.6,10.1,19.3,11.4,35.8
		H50.5z M69.6,8.4c0.2,0,0.5,0,0.7,0c8.4,0,17.2,14.6,19.8,37.5h-8.9C79.9,29.8,75.6,16.3,69.6,8.4z M98.3,69H87.7V52.1h2.8
		c0.1,2.3,0.2,4.7,0.2,7.2h4.4c0-2.4-0.1-4.9-0.2-7.2h3.3V69z"/>
	<path id="icon:2_2_" class="st0" d="M83,81.1v2.2h4.5v-2.2H83z M83,81.1v2.2h4.5v-2.2H83z M110.3,86.1V58
		c0-12.6-5.2-24.2-13.6-32.5c-3.9-3.9-8.6-7.1-13.8-9.5C83,15.6,83,15,83,14.4c0-7.7-8.5-13.9-18.9-13.9c-10.4,0-18.9,6.3-18.9,13.9
		c0,0.5,0,1,0.1,1.5C29,23,17.5,39.3,17.5,58v28.2c-2.8,1.7-4.6,4.8-4.6,8.3v21c0,5.4,11.9,6.6,11.9,4.8V66.5
		c0-20.6,16.9-37.3,37.6-37.3h1.6c20.7,0,37.6,16.7,37.6,37.3v53.8c0,1.8,13.6,0.6,13.6-4.8v-21C115.1,90.9,113.1,87.8,110.3,86.1z
		 M78.7,14.4C74,12.9,69.1,12,63.9,12c-5,0-9.8,0.8-14.3,2.3c0.1-5.2,6.7-9.5,14.6-9.5C72,4.8,78.7,9.2,78.7,14.4L78.7,14.4z
		 M63.9,32.1h-1.6c-19.1,0-34.7,15.4-34.7,34.4v50.9c0,5.5,4.5,10,10.1,10h50.7c5.6,0,10.1-4.5,10.1-10V66.5
		C98.6,47.5,83.1,32.1,63.9,32.1z M89,84.8h-7.5V71.8H89V84.8z M91.7,68.8c0,0.9-0.7,1.6-1.6,1.6H38.2c-0.9,0-1.7-0.7-1.7-1.6
		s0.8-1.6,1.7-1.6h51.9C91,67.2,91.7,67.9,91.7,68.8z M87.4,81.1H83v2.2h4.5V81.1z"/>
	<path id="icon:1_2_" class="st0" d="M79.8,76H123l-11.5,52H16.5L5,76h43.2v5.2c0,0.9,0.7,1.6,1.7,1.6h28.3c0.9,0,1.7-0.7,1.7-1.6
		V76z M128,50.9l-4.3,20.2H79.8v-3.4c0-0.9-0.7-1.6-1.7-1.6H49.9c-0.9,0-1.7,0.7-1.7,1.6v3.4H4.3L0,50.9h20.8v-3.3
		c0-3.3,2.7-6,6-6.1C27.4,18.5,43.9,0,64,0c20.1,0,36.6,18.5,37.2,41.4c3.3,0.1,6,2.8,6,6.1v3.3H128z M92.5,42.8
		c1-0.8,2.3-1.3,3.7-1.4C95.6,21.2,81.4,4.9,64,4.9S32.4,21.2,31.8,41.5c1.4,0,2.7,0.6,3.7,1.4c1.4,1.1,2.2,2.8,2.2,4.7v3.3h52.5
		v-3.3C90.3,45.7,91.1,43.9,92.5,42.8z"/>
</g>
<g id="row2">
	<path id="icon:5_3_" class="st0" d="M112,56.1c0-3.1-2.6-5.7-5.8-5.7h-3.8c-0.6-6.1-5.3-11.1-11.4-12.1C90.2,17.2,78.4,0.5,64,0.5
		c-14.4,0-26.2,16.8-27.1,37.9c-5.7,1.3-10,6.1-10.5,12h-4.6c-3.2,0-5.8,2.6-5.8,5.7l-1.1,7.7h98.3L112,56.1z M36.3,50.3
		c0.6-1.6,2-2.7,3.8-2.7c1.7,0,3.2,1.1,3.8,2.7H36.3z M47.4,50.3c-0.6-3.4-3.6-6-7.3-6c-3.6,0-6.6,2.6-7.3,6h-3.1
		c0.7-5.1,5.1-9,10.4-9c5.3,0,9.7,3.9,10.4,9H47.4z M53.9,50.3C53.2,44,48.2,39,41.9,38.1C42.8,19.9,52.3,5.5,64,5.5
		C75.6,5.5,85.2,20,86,38.3c-5.9,1.1-10.5,6-11.1,12.1H53.9z M84.8,50.3c0.6-1.6,2.1-2.7,3.8-2.7c1.7,0,3.2,1.1,3.8,2.7H84.8z
		 M95.9,50.3c-0.6-3.4-3.6-6-7.3-6s-6.6,2.6-7.3,6h-3.1c0.7-5.1,5.1-9,10.4-9c5.3,0,9.7,3.9,10.4,9H95.9z M114.1,70.4H13.9l0.5-3.3
		h99.2L114.1,70.4z M121.6,121.8c0,3.1-2.6,5.7-5.8,5.7H12.2c-3.2,0-5.8-2.6-5.8-5.7l7-48.1h101.2L121.6,121.8z"/>
	<path id="icon:4_3_" class="st0" d="M50.7,78.7v-1.4h24.9v1.4c0,6-4.9,10.9-11,10.9h-2.9C55.7,89.6,50.7,84.7,50.7,78.7z
		 M111.1,77.2H79v1.4C79,86.6,72.5,93,64.6,93h-2.9c-7.9,0-14.4-6.4-14.4-14.3v-1.4H16.9c-4.4,0-8.4-1.7-11.4-4.4v41.2
		c0,5.6,4.6,10.1,10.2,10.1h94.9c5.6,0,10.2-4.5,10.2-10.1V74.2C118.1,76.1,114.7,77.2,111.1,77.2z M106.9,31.1v-4h-7.6v-0.6
		C99.3,14,89,3.8,76.3,3.8H53.5C40.8,3.8,30.5,14,30.5,26.6v0.6h-8.8v4H0v24.2c0,4.9,2.1,9.4,5.5,12.4c3,2.7,7,4.4,11.4,4.4h94.1
		c3.6,0,7-1.1,9.7-3.1c4.4-3,7.2-8.1,7.2-13.8V31.1H106.9z M35.6,26.6c0-9.8,8-17.7,17.8-17.7h22.9c9.8,0,17.8,7.9,17.8,17.7v0.6
		h-7.6v4H42v-4h-6.4V26.6z"/>
	<path id="icon:3_3_" class="st0" d="M120.5,26.6l7.5-10H1.3l3.9,9.6l-5,5.3L0,31.8v71.1c0,4.7,4.1,8.6,9,8.6h107.5c5,0,9-3.8,9-8.6
		V32.4l-0.8-0.9L120.5,26.6z M86.2,56.5H39.3V43.8h46.9V56.5z M7.4,31.5l4-4.3l-2.2-5.5h108.3l-3.7,5l4,4.7H7.4z"/>
	<path id="icon:2_3_" class="st0" d="M108.5,65.6H88.8c-0.8,0-1.5,0.7-1.5,1.5v10.7c0,0.8,0.7,1.5,1.5,1.5h19.6
		c0.9,0,1.5-0.7,1.5-1.5V67.2C110,66.3,109.3,65.6,108.5,65.6z M39.2,65.6H19.5c-0.8,0-1.5,0.7-1.5,1.5v10.7c0,0.8,0.7,1.5,1.5,1.5
		h19.6c0.9,0,1.5-0.7,1.5-1.5V67.2C40.7,66.3,40,65.6,39.2,65.6z M118.8,33.4H98.6v-7.9c0-5.9-4.9-10.7-10.8-10.7H40.2
		c-5.9,0-10.8,4.8-10.8,10.7v7.9H9.2c-5.1,0-9.2,4.1-9.2,9.2v26.2c1.6,1.9,3.9,3,6.5,3h8.4v-4.6c0-2.5,2.1-4.6,4.6-4.6h19.6
		c2.6,0,4.6,2.1,4.6,4.6v4.6h40.4v-4.6c0-2.5,2.1-4.6,4.6-4.6h19.6c2.6,0,4.6,2.1,4.6,4.6v4.6h8.4c2.6,0,5-1.2,6.5-3V42.5
		C128,37.5,123.8,33.4,118.8,33.4z M92.4,33.4H35.6v-7.9c0-2.5,2.1-4.6,4.6-4.6h47.6c2.5,0,4.6,2.1,4.6,4.6V33.4z M121.5,76.3h-8.4
		v1.5c0,2.5-2.1,4.6-4.6,4.6H88.8c-2.5,0-4.6-2.1-4.6-4.6v-1.5H43.8v1.5c0,2.5-2.1,4.6-4.6,4.6H19.5c-2.5,0-4.6-2.1-4.6-4.6v-1.5
		H6.5c-2.4,0-4.6-0.6-6.5-1.7v29.5c0,5,4.2,9.2,9.2,9.2h109.5c5.1,0,9.2-4.1,9.2-9.2V74.6C126.1,75.7,123.9,76.3,121.5,76.3z
		 M19.5,79.4h19.6c0.9,0,1.5-0.7,1.5-1.5V67.2c0-0.8-0.7-1.5-1.5-1.5H19.5c-0.8,0-1.5,0.7-1.5,1.5v10.7C18,78.7,18.7,79.4,19.5,79.4
		z"/>
	<path id="icon:1_3_" class="st0" d="M4.3,25.4c1.5-1,3.4-1.6,5.4-1.6h108.6c2,0,3.8,0.6,5.4,1.6C116.2,40.7,92.3,51.9,64,51.9
		S11.8,40.7,4.3,25.4z M128,33.5v61.1c0,5.3-4.4,9.6-9.7,9.6H9.7c-5.3,0-9.7-4.3-9.7-9.6V33.5c0-1.5,0.3-2.9,1-4.2
		c9.3,16,34,27.5,63,27.5s53.7-11.5,63-27.5C127.7,30.6,128,32,128,33.5z M73.7,68.8c0-2.7-2.2-4.8-4.9-4.8h-9.6
		c-1.3,0-2.6,0.5-3.4,1.4c-0.9,0.9-1.4,2.1-1.4,3.4c0,2.7,2.2,4.8,4.9,4.8h9.6c1.3,0,2.6-0.5,3.4-1.4C73.1,71.4,73.7,70.2,73.7,68.8
		z"/>
</g>
<g id="row1">
	<path id="icon:5" class="st0" d="M90.9,49.8H36.1c-1.6,0-2.9,1.3-2.9,2.9v62.8c0,1.6,1.3,2.9,2.9,2.9h54.8c1.6,0,2.9-1.3,2.9-2.9
		V52.7C93.8,51.1,92.5,49.8,90.9,49.8z M71.4,62.4c-0.7,0.7-1.7,1.1-2.7,1.1h-7.4c-2.2,0-3.9-1.7-3.9-3.9c0-1.1,0.4-2,1.1-2.7
		c0.7-0.7,1.7-1.1,2.8-1.1h7.4c2.1,0,3.9,1.7,3.9,3.9C72.5,60.7,72.1,61.6,71.4,62.4z M90.9,49.8H36.1c-1.6,0-2.9,1.3-2.9,2.9v62.8
		c0,1.6,1.3,2.9,2.9,2.9h54.8c1.6,0,2.9-1.3,2.9-2.9V52.7C93.8,51.1,92.5,49.8,90.9,49.8z M71.4,62.4c-0.7,0.7-1.7,1.1-2.7,1.1h-7.4
		c-2.2,0-3.9-1.7-3.9-3.9c0-1.1,0.4-2,1.1-2.7c0.7-0.7,1.7-1.1,2.8-1.1h7.4c2.1,0,3.9,1.7,3.9,3.9C72.5,60.7,72.1,61.6,71.4,62.4z
		 M93.6,35H82.8V11.3C82.8,5.3,78,0.5,72,0.5H56c-6,0-10.8,4.8-10.8,10.8V35H34.4c-4.8,0-8.7,3.9-8.7,8.6v75.3
		c0,4.7,3.9,8.6,8.7,8.6h59.2c4.8,0,8.7-3.9,8.7-8.6V43.6C102.3,38.9,98.4,35,93.6,35z M49.5,11.3c0-2.4,1.3-4.5,3.3-5.6
		c2.1,1,6.7,1.7,12.1,1.7c4.5,0,8.5-0.5,10.9-1.2c1.6,1.2,2.6,3.1,2.6,5.2V35h-29V11.3z M96.6,115.4c0,3.2-2.6,5.7-5.8,5.7H36.1
		c-3.2,0-5.8-2.6-5.8-5.7V52.7c0-3.2,2.6-5.7,5.8-5.7h54.8c3.2,0,5.8,2.6,5.8,5.7V115.4z M90.9,49.8H36.1c-1.6,0-2.9,1.3-2.9,2.9
		v62.8c0,1.6,1.3,2.9,2.9,2.9h54.8c1.6,0,2.9-1.3,2.9-2.9V52.7C93.8,51.1,92.5,49.8,90.9,49.8z M71.4,62.4c-0.7,0.7-1.7,1.1-2.7,1.1
		h-7.4c-2.2,0-3.9-1.7-3.9-3.9c0-1.1,0.4-2,1.1-2.7c0.7-0.7,1.7-1.1,2.8-1.1h7.4c2.1,0,3.9,1.7,3.9,3.9
		C72.5,60.7,72.1,61.6,71.4,62.4z"/>
	<path id="icon:4" class="st0" d="M99.1,55.1c1.8-1.6,2.9-3.9,2.9-6.4c0-3.9-2.7-7.3-6.4-8.3C94.9,15.4,83.2,0.5,64,0.5
		c-19.4,0-31.1,15.1-31.6,40.6c-2.7,1.4-4.6,4.3-4.6,7.6c0,2.1,0.7,3.9,1.9,5.4c-5.1,6.8-8.1,15.1-8.4,24
		C31.6,90.7,46.9,98.7,64,98.7c17.1,0,32.4-8,42.7-20.6C106.5,69.6,103.7,61.7,99.1,55.1z M36.4,52.7c-2.2,0-4-1.8-4-4
		c0-2.2,1.8-3.9,4-3.9c2.2,0,4,1.8,4,3.9C40.4,50.9,38.6,52.7,36.4,52.7z M89.1,60c0,13.5-11.1,24.6-24.8,24.6
		c-13.6,0-24.8-11.1-24.8-24.6v-3.3c3.2-1.2,5.5-4.4,5.5-8c0-4.5-3.5-8.2-8-8.5c0.8-22.3,10.5-35,27-35c16.5,0,26.3,12.8,27,35.3
		c-3.6,1-6.3,4.3-6.3,8.2c0,3.2,1.8,6,4.4,7.5V60z M93.3,52.7c-2.2,0-4-1.8-4-4c0-2.2,1.8-3.9,4-3.9c2.2,0,4,1.8,4,3.9
		C97.3,50.9,95.5,52.7,93.3,52.7z M64,103.3c-16.6,0-31.7-7-42.7-18.3v0.1c0,1.8,0.1,3.6,0.4,5.4c10.3,11.6,25.4,19,42.3,19
		c16.9,0,32.1-7.4,42.3-19c0.2-1.8,0.4-3.6,0.4-5.4v-0.1C95.7,96.4,80.6,103.3,64,103.3z M23.7,99.1c5.8,16.5,21.7,28.4,40.3,28.4
		c18.6,0,34.4-11.9,40.3-28.4c-10.7,9.4-24.8,15-40.3,15S34.4,108.4,23.7,99.1z"/>
	<path id="icon:3" class="st0" d="M127.8,107.7l-13.4-81.9L97.5,9.3h-67L13.6,25.8L0.2,107.7c-1.1,5.7,3.3,11,9.2,11h109.3
		C124.5,118.7,128.9,113.4,127.8,107.7z M93.6,36.7v2.8c0,15.9-13.1,28.9-29.2,28.9s-29.2-13-29.2-28.9v-2.8c-1-0.9-1.6-2.1-1.6-3.5
		c0-1.5,0.7-2.9,1.9-3.7c0.8-0.6,1.7-0.9,2.8-0.9c1,0,2,0.4,2.8,0.9c1.1,0.9,1.9,2.2,1.9,3.7s-0.7,2.9-1.9,3.7
		c-0.7,0.5-1.5,0.8-2.4,0.9v1.7c0,13,12.6,25.5,25.7,25.5c13.2,0,25.7-12.5,25.7-25.5v-1.7c-0.9-0.1-1.7-0.4-2.4-0.9
		c-1.1-0.9-1.9-2.2-1.9-3.7s0.7-2.9,1.9-3.7c0.8-0.6,1.7-0.9,2.8-0.9c1,0,2,0.4,2.8,0.9c1.1,0.9,1.9,2.2,1.9,3.7
		C95.2,34.5,94.6,35.8,93.6,36.7z M25.4,22.1l7.4-7.2h62.5l7.4,7.2H25.4z"/>
	<path id="icon:2" class="st1" d="M94.4,34.3v-4.1c0-16.4-13.5-29.7-30-29.7c-16.5,0-30,13.3-30,29.7v4.1H18v93.1H110V34.3H94.4z
		 M39.9,30.3c0-13.4,11-24.3,24.5-24.3c13.5,0,24.5,10.9,24.5,24.3v4.1H39.9V30.3z M39.9,47.8c-0.7,0.6-1.7,0.9-2.7,0.9
		c-1,0-2-0.3-2.7-0.9c-1.1-0.8-1.8-2.1-1.8-3.6c0-1.5,0.7-2.8,1.8-3.6c0.7-0.6,1.7-0.9,2.7-0.9c1,0,2,0.3,2.7,0.9
		c1.1,0.8,1.8,2.1,1.8,3.6C41.7,45.7,41,47,39.9,47.8z M94.4,47.8c-0.7,0.6-1.7,0.9-2.7,0.9c-1,0-2-0.3-2.7-0.9
		c-1.1-0.8-1.8-2.1-1.8-3.6c0-1.5,0.7-2.8,1.8-3.6c0.7-0.6,1.7-0.9,2.7-0.9c1,0,2,0.3,2.7,0.9c1.1,0.8,1.8,2.1,1.8,3.6
		C96.2,45.7,95.5,47,94.4,47.8z"/>
	<path id="icon:1" class="st0" d="M7.5,34.5c-4.2,0-7.5,3.2-7.5,7.3v63.5c0,4,3.4,7.3,7.5,7.3h9.9v-78H7.5z M120.5,34.5h-10.8v78
		h10.8c4.2,0,7.5-3.2,7.5-7.3V41.8C128,37.8,124.6,34.5,120.5,34.5z M94.1,24.5c0-5-4.2-9.1-9.4-9.1H43.3c-5.2,0-9.4,4.1-9.4,9.1v10
		h-8.9v78h77.2v-78h-8V24.5z M86.6,34.5H41.4v-10c0-1,0.8-1.8,1.9-1.8h41.4c1,0,1.9,0.8,1.9,1.8V34.5z"/>
</g>
</svg>
